#!OML:ASF H:\LiuWeirdWalks\Patient Classification 1\Patient 1\Session 1\male.ASF
:FULLY-SPECIFIED
:DEGREES
593
root -0.211396 17.979 -26.5767 7.53511 2.45113 3.4679
lowerback 10.451 0.241615 11.6015
upperback 1.71051 2.30225 14.0977
thorax -4.26089 1.07994 8.41992
lowerneck -27.4966 1.63747 11.705
upperneck 27.053 2.27196 -15.5746
head 14.2016 -0.00847303 -8.06331
rclavicle 3.18055e-015 -4.45278e-014
rhumerus -17.0968 -17.7061 -48.7911
rradius 28.3128
rwrist -11.7645
rhand -18.0397 -4.6258
rfingers 7.12502
rthumb 8.23198 -34.4454
lclavicle 3.18055e-015 -4.45278e-014
lhumerus -36.6248 -14.8521 102.17
lradius 40.6318
lwrist 2.03513
lhand -5.17754 -5.57666
lfingers 7.12502
lthumb 20.6228 23.3478
rfemur 6.77158 2.08654 15.5361
rtibia 14.0029
rfoot -11.119 -21.0858
rtoes -13.2243
lfemur -26.3343 -0.00834344 -23.7693
ltibia 11.7249
lfoot 1.66625 9.8562
ltoes -29.5378
594
root -0.173952 17.9879 -26.477 7.49659 2.12894 3.65763
lowerback 10.4475 0.262918 11.4449
upperback 1.73775 2.29924 14.0133
thorax -4.23035 1.07957 8.40833
lowerneck -27.375 1.67523 11.6942
upperneck 27.0328 2.36695 -15.6453
head 14.1873 0.025081 -8.06945
rclavicle -1.59028e-015 -7.95139e-014
rhumerus -17.0602 -17.282 -48.8543
rradius 28.7446
rwrist -12.0591
rhand -18.0268 -4.5937
rfingers 7.12502
rthumb 8.24449 -34.4128
lclavicle -1.59028e-015 -7.95139e-014
lhumerus -36.5252 -14.9892 102.297
lradius 40.2555
lwrist 2.04819
lhand -5.01403 -5.5327
lfingers 7.12502
lthumb 20.7799 23.3746
rfemur 7.10402 2.24124 15.146
rtibia 13.989
rfoot -10.7363 -20.8673
rtoes -13.9309
lfemur -26.0828 0.0375627 -24.0864
ltibia 11.7618
lfoot 2.57047 9.64253
ltoes -30.3144
595
root -0.135123 17.9979 -26.3747 7.46825 1.81698 3.8996
lowerback 10.4368 0.454907 11.4048
upperback 1.74646 2.52589 13.7217
thorax -4.21454 1.18762 8.05626
lowerneck -27.5844 1.60029 11.9881
upperneck 27.1642 2.11354 -15.6547
head 14.2412 -0.0576916 -8.19391
rclavicle 3.18055e-014 5.725e-014
rhumerus -17.4913 -17.5239 -48.871
rradius 29.2394
rwrist -12.2643
rhand -18.0213 -4.53927
rfingers 7.12502
rthumb 8.24975 -34.3582
lclavicle 3.18055e-014 5.725e-014
lhumerus -36.4591 -15.9375 102.38
lradius 39.882
lwrist 2.19504
lhand -4.89565 -5.50129
lfingers 7.12502
lthumb 20.8937 23.3935
rfemur 7.38386 2.39714 14.6938
rtibia 14.0677
rfoot -10.3514 -20.6532
rtoes -14.627
lfemur -25.8256 0.172354 -24.5004
ltibia 11.7387
lfoot 3.503 9.47851
ltoes -31.4975
596
root -0.09509 18.0085 -26.2697 7.45187 1.51672 4.20243
lowerback 10.412 0.764116 11.4271
upperback 1.73269 2.9074 13.2778
thorax -4.20857 1.36866 7.47441
lowerneck -27.995 1.46498 12.5395
upperneck 27.3646 1.63053 -15.6627
head 14.3221 -0.21466 -8.42106
rclavicle 1.59028e-015 -2.22639e-014
rhumerus -18.2759 -18.1987 -48.8412
rradius 29.7936
rwrist -12.4413
rhand -18.0322 -4.49253
rfingers 7.12502
rthumb 8.23926 -34.3119
lclavicle 1.59028e-015 -2.22639e-014
lhumerus -36.4258 -17.4608 102.442
lradius 39.4971
lwrist 2.41068
lhand -4.83476 -5.46842
lfingers 7.12502
lthumb 20.9522 23.42
rfemur 7.58522 2.54229 14.1674
rtibia 14.2923
rfoot -9.99653 -20.437
rtoes -15.3012
lfemur -25.542 0.415602 -25.0283
ltibia 11.682
lfoot 4.30498 9.31726
ltoes -32.3399
597
root -0.0541681 18.0181 -26.1624 7.441 1.23177 4.54613
lowerback 10.3664 1.16943 11.5157
upperback 1.6431 3.42441 12.6894
thorax -4.25725 1.61108 6.67962
lowerneck -28.3931 1.22054 13.2958
upperneck 27.6531 0.874927 -15.6292
head 14.3789 -0.457055 -8.7232
rclavicle 2.06736e-014 9.54166e-015
rhumerus -19.507 -19.1688 -48.7389
rradius 30.423
rwrist -12.6094
rhand -18.0393 -4.44902
rfingers 7.12502
rthumb 8.23244 -34.2686
lclavicle 2.06736e-014 9.54166e-015
lhumerus -36.5738 -19.4829 102.516
lradius 39.1331
lwrist 2.69427
lhand -4.74115 -5.40603
lfingers 7.12502
lthumb 21.0421 23.4724
rfemur 7.69611 2.67697 13.5909
rtibia 14.6991
rfoot -9.6974 -20.2212
rtoes -15.9599
lfemur -25.2269 0.722207 -25.6277
ltibia 11.6305
lfoot 4.87411 9.14613
ltoes -32.1203
598
root -0.0124204 18.0271 -26.0535 7.42848 0.959802 4.9115
lowerback 10.294 1.44274 11.4771
upperback 1.58098 3.75116 12.2559
thorax -4.26331 1.76519 6.16591
lowerneck -28.6674 1.0637 13.7938
upperneck 27.9307 0.388588 -15.6292
head 14.4562 -0.610265 -8.93994
rclavicle -7.95139e-015 6.36111e-014
rhumerus -20.367 -19.6759 -48.6561
rradius 31.0089
rwrist -12.8199
rhand -18.041 -4.40739
rfingers 7.12502
rthumb 8.23078 -34.2271
lclavicle -7.95139e-015 6.36111e-014
lhumerus -36.6536 -20.9004 102.648
lradius 38.7667
lwrist 2.86041
lhand -4.61468 -5.31016
lfingers 7.12502
lthumb 21.1636 23.5547
rfemur 7.73062 2.8177 12.9872
rtibia 15.2651
rfoot -9.42864 -20.0064
rtoes -16.6096
lfemur -24.8729 1.03174 -26.2489
ltibia 11.5976
lfoot 5.16934 8.9615
ltoes -31.3875
599
root 0.0303825 18.0349 -25.943 7.40846 0.703259 5.29325
lowerback 10.1787 1.55744 11.2921
upperback 1.54138 3.85155 12.0123
thorax -4.23609 1.81467 5.98198
lowerneck -28.6612 0.987998 13.9793
upperneck 28.143 0.209821 -15.6513
head 14.5097 -0.662565 -9.03737
rclavicle 2.38542e-014 2.8625e-014
rhumerus -20.8171 -19.5965 -48.6084
rradius 31.556
rwrist -13.0905
rhand -18.0294 -4.35887
rfingers 7.12502
rthumb 8.24192 -34.1781
lclavicle 2.38542e-014 2.8625e-014
lhumerus -36.6766 -21.5795 102.841
lradius 38.3905
lwrist 2.85068
lhand -4.46243 -5.20576
lfingers 7.12502
lthumb 21.3098 23.6426
rfemur 7.70284 2.95328 12.3585
rtibia 15.9739
rfoot -9.16294 -19.7781
rtoes -17.2781
lfemur -24.4902 1.32041 -26.8766
ltibia 11.607
lfoot 5.19939 8.73334
ltoes -30.1659
600
root 0.0741879 18.0428 -25.8311 7.35949 0.463391 5.65715
lowerback 10.0466 1.46378 10.9513
upperback 1.5498 3.66431 12.0315
thorax -4.17001 1.73082 6.21875
lowerneck -28.3474 1.04426 13.771
upperneck 28.2374 0.468351 -15.729
head 14.5404 -0.574323 -8.98686
rclavicle 2.06736e-014 5.725e-014
rhumerus -20.6818 -18.8089 -48.6113
rradius 32.0297
rwrist -13.4261
rhand -18.0026 -4.2947
rfingers 7.12502
rthumb 8.26784 -34.1129
lclavicle 2.06736e-014 5.725e-014
lhumerus -36.5627 -21.3095 103.094
lradius 37.9934
lwrist 2.69513
lhand -4.23555 -5.0994
lfingers 7.12502
lthumb 21.5278 23.7242
rfemur 7.64491 3.10002 11.7474
rtibia 16.7965
rfoot -8.86574 -19.5411
rtoes -17.9893
lfemur -24.0606 1.5873 -27.4678
ltibia 11.6458
lfoot 5.04277 8.44734
ltoes -28.845
601
root 0.118884 18.0503 -25.7183 7.28384 0.246242 6.00015
lowerback 9.91625 1.20412 10.5028
upperback 1.61305 3.24918 12.2531
thorax -4.05451 1.54026 6.77434
lowerneck -27.8574 1.25465 13.3118
upperneck 28.1508 1.11164 -15.8934
head 14.5356 -0.360802 -8.83615
rclavicle -1.59028e-015 2.8625e-014
rhumerus -20.0478 -17.5342 -48.6501
rradius 32.4244
rwrist -13.7733
rhand -17.9751 -4.21062
rfingers 7.12502
rthumb 8.29435 -34.0278
lclavicle -1.59028e-015 2.8625e-014
lhumerus -36.2794 -20.3344 103.373
lradius 37.581
lwrist 2.44013
lhand -4.00819 -5.02227
lfingers 7.12502
lthumb 21.7461 23.7762
rfemur 7.55695 3.25025 11.1583
rtibia 17.7203
rfoot -8.53631 -19.2897
rtoes -18.7118
lfemur -23.5967 1.8193 -28.0171
ltibia 11.7035
lfoot 4.78006 8.12433
ltoes -27.6544
602
root 0.164187 18.0575 -25.6049 7.1762 0.0425663 6.31762
lowerback 9.82411 0.826523 9.98194
upperback 1.70917 2.67967 12.6193
thorax -3.91791 1.27506 7.55841
lowerneck -27.2062 1.58769 12.6968
upperneck 27.8053 2.03022 -16.1493
head 14.4386 -0.0581659 -8.61475
rclavicle -3.65764e-014 -1.145e-013
rhumerus -19.095 -15.8731 -48.6786
rradius 32.7887
rwrist -14.1784
rhand -17.9493 -4.123
rfingers 7.12502
rthumb 8.31922 -33.9392
lclavicle -3.65764e-014 -1.145e-013
lhumerus -35.8807 -18.8611 103.672
lradius 37.182
lwrist 2.10153
lhand -3.77003 -4.9994
lfingers 7.12502
lthumb 21.9748 23.7724
rfemur 7.44685 3.40103 10.5937
rtibia 18.7372
rfoot -8.17661 -19.0052
rtoes -19.409
lfemur -23.0897 2.03427 -28.5228
ltibia 11.7499
lfoot 4.47686 7.79788
ltoes -26.6722
603
root 0.210076 18.0646 -25.4909 7.04366 -0.150616 6.61348
lowerback 9.78809 0.54852 9.57469
upperback 1.76507 2.2643 12.864
thorax -3.83945 1.07955 8.12429
lowerneck -26.6459 1.84937 12.2871
upperneck 27.4616 2.71339 -16.3744
head 14.3118 0.171978 -8.46244
rclavicle 0 -2.22639e-014
rhumerus -18.4959 -14.6155 -48.632
rradius 33.163
rwrist -14.5159
rhand -17.9217 -4.00284
rfingers 7.12502
rthumb 8.34588 -33.818
lclavicle 0 -2.22639e-014
lhumerus -35.5885 -17.9265 103.97
lradius 36.8484
lwrist 1.87272
lhand -3.51406 -4.96708
lfingers 7.12502
lthumb 22.2205 23.7756
rfemur 7.29749 3.5344 10.0443
rtibia 19.8574
rfoot -7.78242 -18.6719
rtoes -20.0902
lfemur -22.5499 2.24665 -28.9956
ltibia 11.7768
lfoot 4.16204 7.49878
ltoes -25.8005
604
root 0.256226 18.0713 -25.3766 6.89821 -0.344715 6.90263
lowerback 9.78862 0.389773 9.27857
upperback 1.83093 2.01645 12.9762
thorax -3.76554 0.962769 8.45432
lowerneck -26.392 2.05792 12.0957
upperneck 27.2178 3.17452 -16.5597
head 14.2498 0.331101 -8.39457
rclavicle 7.95139e-015 7.95139e-014
rhumerus -18.1788 -13.8486 -48.551
rradius 33.5347
rwrist -14.7871
rhand -17.8798 -3.83775
rfingers 7.12502
rthumb 8.38634 -33.6513
lclavicle 7.95139e-015 7.95139e-014
lhumerus -35.2842 -17.6007 104.227
lradius 36.544
lwrist 1.67261
lhand -3.29169 -4.98555
lfingers 7.12502
lthumb 22.434 23.7316
rfemur 7.09005 3.64246 9.4882
rtibia 21.0852
rfoot -7.37254 -18.2799
rtoes -20.6921
lfemur -21.9855 2.47032 -29.4568
ltibia 11.7692
lfoot 3.87477 7.23086
ltoes -25.2058
605
root 0.302591 18.0778 -25.2612 6.74838 -0.548052 7.18196
lowerback 9.79179 0.368379 9.12022
upperback 1.82164 1.96967 12.9143
thorax -3.77624 0.940671 8.47937
lowerneck -26.1866 2.10898 12.1526
upperneck 27.1794 3.27439 -16.6547
head 14.2135 0.374236 -8.41902
rclavicle 9.54166e-015 5.40694e-014
rhumerus -18.3788 -13.5509 -48.4352
rradius 33.919
rwrist -14.9946
rhand -17.8228 -3.64592
rfingers 7.12502
rthumb 8.44137 -33.4572
lclavicle 9.54166e-015 5.40694e-014
lhumerus -35.2161 -17.9487 104.468
lradius 36.3262
lwrist 1.56321
lhand -3.02936 -4.99715
lfingers 7.12502
lthumb 22.6858 23.6894
rfemur 6.80846 3.71181 8.92252
rtibia 22.4234
rfoot -6.92518 -17.82
rtoes -21.2271
lfemur -21.3994 2.72287 -29.9095
ltibia 11.7201
lfoot 3.62693 6.99363
ltoes -24.0179
606
root 0.348954 18.0839 -25.1451 6.60826 -0.768463 7.46779
lowerback 9.79291 0.357373 8.94776
upperback 1.81764 1.93378 12.8507
thorax -3.78126 0.924205 8.50917
lowerneck -26.0946 2.15521 12.1984
upperneck 27.2835 3.36774 -16.7298
head 14.2613 0.414803 -8.45266
rclavicle -2.8625e-014 -8.90555e-014
rhumerus -18.5654 -13.2922 -48.3157
rradius 34.2481
rwrist -15.1818
rhand -17.7573 -3.445
rfingers 7.12502
rthumb 8.50451 -33.2537
lclavicle -2.8625e-014 -8.90555e-014
lhumerus -35.1375 -18.3262 104.692
lradius 36.1635
lwrist 1.40437
lhand -2.73135 -5.01169
lfingers 7.12502
lthumb 22.9718 23.6396
rfemur 6.43821 3.74457 8.32739
rtibia 23.8656
rfoot -6.43411 -17.2966
rtoes -21.6916
lfemur -20.8123 3.00709 -30.3758
ltibia 11.64
lfoot 3.42032 6.77162
ltoes -22.7187
